<?xml version="1.0" standalone="no"?>
<!DOCTYPE svg PUBLIC "-//W3C//DTD SVG 20010904//EN"
 "http://www.w3.org/TR/2001/REC-SVG-20010904/DTD/svg10.dtd">
<svg version="1.0" xmlns="http://www.w3.org/2000/svg"
 width="635.000000pt" height="317.000000pt" viewBox="0 0 635.000000 317.000000"
 preserveAspectRatio="xMidYMid meet">

<g transform="translate(0.000000,317.000000) scale(0.100000,-0.100000)"
fill="#000000" stroke="none">
<path d="M4070 1650 c0 -13 7 -20 20 -20 13 0 20 7 20 20 0 13 -7 20 -20 20
-13 0 -20 -7 -20 -20z"/>
<path d="M2140 1365 l0 -295 80 0 79 0 3 151 3 152 46 -104 46 -104 42 0 42 0
46 104 c57 125 62 119 55 -66 l-5 -133 82 0 81 0 0 295 0 296 -87 -3 -86 -3
-60 -132 c-34 -73 -64 -133 -68 -133 -3 0 -34 60 -67 133 l-60 132 -86 3 -86
3 0 -296z"/>
<path d="M3024 1650 c-51 -16 -126 -72 -155 -115 -39 -56 -52 -114 -47 -193 8
-114 70 -201 176 -250 73 -33 181 -29 259 11 48 25 91 67 94 92 1 6 -25 26
-57 45 l-58 36 -26 -29 c-21 -23 -37 -31 -76 -34 -97 -10 -154 46 -154 150 0
69 19 111 63 137 56 35 145 20 180 -29 13 -19 15 -19 70 20 31 22 57 43 57 46
0 18 -47 63 -91 88 -43 23 -68 29 -129 31 -41 2 -89 -1 -106 -6z"/>
<path d="M3362 1647 c2 -7 50 -140 108 -295 l105 -282 65 0 65 0 37 103 c31
87 153 417 173 470 6 15 -1 17 -76 17 l-84 0 -55 -190 c-30 -105 -57 -190 -60
-190 -3 0 -31 84 -61 188 l-55 187 -83 3 c-66 2 -82 0 -79 -11z"/>
<path d="M4070 1550 c0 -63 2 -70 20 -70 18 0 20 7 20 70 0 63 -2 70 -20 70
-18 0 -20 -7 -20 -70z"/>
<path d="M4140 1550 c0 -68 1 -70 24 -70 23 0 25 5 28 47 2 36 7 49 21 51 14
3 17 -4 17 -47 0 -48 2 -51 25 -51 23 0 25 4 25 43 0 23 -3 52 -6 65 -8 27
-44 38 -73 22 -14 -7 -21 -7 -21 0 0 5 -9 10 -20 10 -18 0 -20 -7 -20 -70z"/>
<path d="M4320 1600 c-41 -41 -12 -120 44 -120 13 0 34 9 47 20 26 21 27 21
-41 24 -20 1 -25 6 -25 26 0 20 5 25 25 26 68 3 67 3 41 24 -30 26 -66 25 -91
0z"/>
<path d="M4450 1505 c0 -18 5 -25 20 -25 15 0 20 7 20 25 0 18 -5 25 -20 25
-15 0 -20 -7 -20 -25z"/>
</g>
</svg>
